<?xml version="1.0" encoding="UTF-8" standalone="no"?>
<svg
   width="16"
   height="16"
   version="1.1"
   id="svg3"
   sodipodi:docname="application-x-shellscript.svg"
   inkscape:version="1.4.3 (0d15f75042, 2025-12-25)"
   xmlns:inkscape="http://www.inkscape.org/namespaces/inkscape"
   xmlns:sodipodi="http://sodipodi.sourceforge.net/DTD/sodipodi-0.dtd"
   xmlns="http://www.w3.org/2000/svg"
   xmlns:svg="http://www.w3.org/2000/svg">
  <defs
     id="defs3" />
  <sodipodi:namedview
     id="namedview3"
     pagecolor="#ffffff"
     bordercolor="#000000"
     borderopacity="0.25"
     inkscape:showpageshadow="2"
     inkscape:pageopacity="0.0"
     inkscape:pagecheckerboard="0"
     inkscape:deskcolor="#d1d1d1"
     inkscape:zoom="27.25"
     inkscape:cx="8"
     inkscape:cy="7.9816514"
     inkscape:window-width="1914"
     inkscape:window-height="1036"
     inkscape:window-x="0"
     inkscape:window-y="0"
     inkscape:window-maximized="1"
     inkscape:current-layer="svg3" />
  <path
     fill="#4f4f4f"
     d="m2.75 1c-0.4172 0-0.75 0.3328-0.75 0.75v13.5c0 0.417 0.3328 0.75 0.75 0.75h10.5c0.418 0 0.75-0.332 0.75-0.75v-9.25l-4.125-0.875-0.875-4.125z"
     id="path1"
     style="fill:#1a1a1a" />
  <path
     fill="#696969"
     d="m9 1v4.1667c0 0.4584 0.3749 0.8333 0.8333 0.8333h4.1667z"
     id="path2"
     style="fill:#ff6600" />
  <path
     style="fill:#ff6600"
     d="m 12,13 h -1 v 1 h 1 z m 0,-5 h -1 v 4 h 1 z m -6,2 h 2 v 2 H 6 Z M 5,8 V 9 H 4 v 1 h 1 v 2 H 4 v 1 h 1 v 1 h 1 v -1 h 2 v 1 h 1 v -1 h 1 V 12 H 9 v -2 h 1 V 9 H 9 V 8 H 8 V 9 H 6 V 8 Z"
     id="path3" />
</svg>
